<svg xmlns="http://www.w3.org/2000/svg" viewBox="0 0 120 120" role="img" aria-labelledby="title desc">
  <title id="title">Logo DH Lawang</title>
  <desc id="desc">Monogram DH dengan ornamen kubah</desc>
  <defs>
    <linearGradient id="grad" x1="0%" y1="0%" x2="100%" y2="100%">
      <stop offset="0%" stop-color="#1fb6ff" />
      <stop offset="100%" stop-color="#0284c7" />
    </linearGradient>
  </defs>
  <rect width="120" height="120" rx="28" fill="url(#grad)" />
  <path d="M60 25L80 40H40L60 25Z" fill="rgba(255,255,255,0.35)" />
  <path d="M45 90V45h12c8 0 13 4 13 11 0 5-3 9-8 10 6 1 11 5 11 11 0 8-6 13-16 13H45Zm12-25c4 0 6-2 6-5 0-3-2-5-6-5h-5v10h5Zm1 20c5 0 8-2 8-6s-3-6-8-6h-6v12h6Z" fill="#f8fafc" />
  <rect x="70" y="45" width="14" height="45" rx="7" fill="#e0f2fe" />
  <rect x="80" y="45" width="14" height="45" rx="7" fill="#0ea5e9" opacity="0.9" />
</svg>
